<svg width="32" height="32" viewBox="0 0 32 32" fill="none" xmlns="http://www.w3.org/2000/svg">
<rect width="32" height="32" rx="16" fill="white"/>
<path d="M5.11252 11.747C5.11252 8.74175 7.36978 6.36328 10.5615 6.36328C11.4491 6.36328 12.0046 6.48093 12.4349 6.54077C12.6373 6.60013 12.8402 6.60013 13.0427 6.60013L16.183 6.57072C16.2354 6.57072 16.2603 6.60013 16.2603 6.62905C16.2603 6.78015 16.183 6.98657 16.0823 6.98657L13.7273 7.34461C14.5131 8.05813 14.9429 9.33762 14.9429 10.4964C14.9429 13.4413 12.9928 15.1666 10.3835 15.6124C10.0539 15.6727 9.59764 15.762 9.1424 15.9699C8.12771 16.297 7.19073 16.7732 7.19073 17.1885C7.19073 17.7246 9.06556 18.0223 10.7878 18.289C14.0817 18.7353 16.1092 19.3017 16.1092 21.4727C16.1092 23.9409 13.3976 25.8446 9.32037 25.8446C6.22985 25.8446 4 24.8639 4 22.989C4 21.6228 5.03962 20.9661 7.89977 19.2104C7.11443 19.0035 6.3306 18.7063 5.9242 18.4685C5.62156 18.2895 5.44354 17.9618 5.44354 17.3386C5.44354 17.0997 5.49589 17.0105 5.64596 16.9212C6.60728 16.4759 7.62153 15.9992 8.40785 15.6427C6.68558 15.345 5.11291 13.889 5.11291 11.7749V11.747H5.11252ZM9.92827 25.3106C12.1063 25.3106 14.005 24.1189 14.0315 22.3932C14.0315 20.461 11.9029 20.0451 8.939 19.5096C8.60842 19.4502 8.43239 19.4502 8.15317 19.6283C7.26811 20.2535 6.20253 21.2348 6.20253 22.6619C6.20253 24.3273 7.77321 25.3106 9.90139 25.3106H9.92827ZM9.9776 15.167C11.472 15.167 12.7894 13.889 12.7894 10.8828C12.7894 8.59357 11.9038 6.86834 10.233 6.86834C8.2549 6.86834 7.29353 8.89129 7.29353 11.36C7.29353 13.71 8.50918 15.167 9.9552 15.167H9.97765L9.9776 15.167Z" fill="black"/>
<path d="M17.627 10.0156H27.0002V11.3559H17.627V10.0156H17.627Z" fill="black"/>
<path d="M21.6426 6H22.9824V15.3752H21.6426V6Z" fill="black"/>
</svg>
