<svg width="32" height="32" viewBox="0 0 32 32" fill="none" xmlns="http://www.w3.org/2000/svg">
<rect x="0.5" y="0.5" width="31" height="31" rx="15.5" fill="white"/>
<rect x="0.5" y="0.5" width="31" height="31" rx="15.5" stroke="white"/>
<path d="M26.4787 9.1732C26.1174 9.33345 25.7459 9.46871 25.3664 9.57851C25.8157 9.07029 26.1584 8.47229 26.3675 7.81791C26.4144 7.67123 26.3658 7.51067 26.2452 7.41474C26.1248 7.31873 25.9575 7.30723 25.8249 7.38581C25.0188 7.86391 24.1491 8.2075 23.2372 8.40841C22.3186 7.51082 21.071 7 19.7812 7C17.0587 7 14.8437 9.21489 14.8437 11.9373C14.8437 12.1518 14.8573 12.365 14.8842 12.5753C11.5058 12.2786 8.36496 10.6181 6.20816 7.97245C6.13129 7.87815 6.01288 7.82733 5.89165 7.83705C5.77034 7.84655 5.66135 7.91495 5.60007 8.02008C5.16262 8.7707 4.93136 9.62919 4.93136 10.5027C4.93136 11.6924 5.35612 12.8211 6.10644 13.7031C5.87829 13.6241 5.6569 13.5254 5.4456 13.4081C5.33216 13.3449 5.19371 13.3459 5.08101 13.4105C4.96824 13.4751 4.89753 13.594 4.89456 13.7239C4.89405 13.7458 4.89405 13.7677 4.89405 13.7899C4.89405 15.5657 5.8498 17.1645 7.31104 18.0359C7.18551 18.0233 7.06004 18.0052 6.9354 17.9814C6.8069 17.9568 6.67476 18.0018 6.5881 18.0998C6.50129 18.1978 6.47258 18.3343 6.51257 18.4589C7.05344 20.1476 8.44598 21.3896 10.1294 21.7683C8.73318 22.6428 7.13646 23.1009 5.46029 23.1009C5.11054 23.1009 4.75879 23.0804 4.41453 23.0396C4.24352 23.0193 4.08 23.1203 4.02175 23.2829C3.96351 23.4456 4.02524 23.627 4.17073 23.7203C6.32405 25.1009 8.8139 25.8307 11.371 25.8307C16.3979 25.8307 19.5425 23.4602 21.2954 21.4716C23.4811 18.992 24.7347 15.7099 24.7347 12.467C24.7347 12.3315 24.7326 12.1947 24.7284 12.0584C25.5908 11.4086 26.3332 10.6223 26.9374 9.71859C27.0292 9.58133 27.0192 9.39993 26.9129 9.27358C26.8067 9.14715 26.6298 9.10627 26.4787 9.1732Z" fill="black"/>
</svg>
