<svg width="32" height="32" viewBox="0 0 32 32" fill="none" xmlns="http://www.w3.org/2000/svg">
<rect width="32" height="32" rx="16" fill="white"/>
<path d="M11.3226 16.652H13.5149V25.6774C13.5149 25.8556 13.6593 26 13.8375 26H17.5546C17.7328 26 17.8772 25.8556 17.8772 25.6774V16.6945H20.3975C20.5614 16.6945 20.6992 16.5715 20.7179 16.4088L21.1007 13.0861C21.1112 12.9946 21.0823 12.9031 21.0211 12.8345C20.9599 12.7659 20.8723 12.7266 20.7803 12.7266H17.8774V10.6437C17.8774 10.0159 18.2154 9.69748 18.8823 9.69748C18.9773 9.69748 20.7803 9.69748 20.7803 9.69748C20.9585 9.69748 21.1029 9.55303 21.1029 9.3749V6.32497C21.1029 6.14677 20.9585 6.00239 20.7803 6.00239H18.1645C18.1461 6.00148 18.1051 6 18.0447 6C17.5908 6 16.0132 6.0891 14.767 7.23555C13.3863 8.506 13.5782 10.0272 13.6241 10.2909V12.7265H11.3226C11.1444 12.7265 11 12.8709 11 13.0491V16.3294C11 16.5075 11.1444 16.652 11.3226 16.652Z" fill="#373737"/>
</svg>
